<?xml version="1.0" standalone="no"?>
<!DOCTYPE svg PUBLIC "-//W3C//DTD SVG 20010904//EN"
 "http://www.w3.org/TR/2001/REC-SVG-20010904/DTD/svg10.dtd">
<svg version="1.0" xmlns="http://www.w3.org/2000/svg"
 width="260.000000pt" height="260.000000pt" viewBox="0 0 260.000000 260.000000"
 preserveAspectRatio="xMidYMid meet">
<metadata>
Created by potrace 1.11, written by Peter Selinger 2001-2013
</metadata>
<g transform="translate(0.000000,260.000000) scale(0.100000,-0.100000)"
fill="#000000" stroke="none">
<path d="M1339 2525 c-1 0 -2 -36 -3 -80 -1 -44 -6 -86 -10 -94 -6 -8 -5 -12
0 -8 5 3 9 -45 9 -114 0 -72 -4 -119 -10 -119 -7 0 -7 -3 0 -8 6 -4 10 -135
10 -357 0 -222 -4 -353 -10 -357 -7 -5 -7 -8 0 -8 6 0 10 -16 11 -35 0 -22 -3
-32 -10 -28 -8 5 -8 2 -1 -8 7 -9 10 -203 10 -560 l-1 -546 41 2 c22 1 46 -3
54 -9 8 -6 12 -6 9 -1 -4 6 23 10 73 10 43 0 79 -4 79 -9 0 -5 8 -2 17 5 15
12 16 12 9 -5 -7 -19 -6 -19 13 -2 15 13 20 14 25 4 5 -11 7 -11 12 0 5 10 10
9 25 -4 19 -17 20 -17 13 0 -6 16 -4 17 14 7 17 -9 22 -9 22 1 0 9 3 9 11 -2
8 -12 12 -12 16 -2 4 10 8 10 21 0 9 -7 13 -8 9 -2 -7 13 31 13 52 0 9 -6 12
-5 8 0 -3 6 17 10 49 9 43 0 53 -3 49 -14 -5 -13 -3 -13 12 0 21 18 68 19 68
2 0 -6 4 -15 9 -20 5 -4 7 -3 3 2 -3 6 -2 17 4 25 7 12 9 12 9 1 0 -11 3 -11
15 -1 11 9 15 9 15 1 0 -7 5 -9 13 -4 21 13 81 9 95 -7 9 -11 12 -12 10 -1 -2
9 9 14 35 15 30 2 37 -1 32 -13 -3 -10 0 -9 10 3 11 14 15 16 15 5 0 -8 3 -10
8 -4 10 14 52 15 52 1 0 -6 4 -5 9 3 6 9 11 10 15 2 5 -8 13 -8 27 -1 14 8 19
7 19 -1 0 -8 5 -7 17 2 15 12 16 12 9 -5 -7 -19 -6 -19 14 -1 14 13 20 14 20
5 0 -11 3 -11 12 -2 9 9 16 8 30 -5 18 -16 18 -16 12 3 -7 16 -6 17 8 6 11 -9
18 -10 23 -2 3 6 11 8 16 5 5 -4 9 97 9 258 l0 264 -262 1 c-145 0 -281 1
-304 1 -40 1 -41 2 -41 36 0 20 4 32 10 28 6 -4 7 -1 1 8 -12 19 -14 91 -3
106 6 7 6 13 1 17 -12 7 -10 106 2 125 6 9 5 12 -1 8 -6 -4 -10 20 -10 63 1
43 5 70 11 70 6 0 4 5 -4 10 -13 9 -13 11 0 20 8 5 10 10 4 10 -14 0 -14 120
1 120 5 0 3 5 -5 10 -13 9 -13 11 0 20 8 5 10 10 4 10 -13 0 -13 218 0 239 6
9 5 12 -2 7 -14 -8 -12 34 2 53 8 11 8 13 0 8 -7 -4 -11 16 -11 63 1 43 5 70
11 70 6 0 4 5 -4 10 -13 9 -13 11 0 20 8 5 10 10 4 10 -14 0 -14 120 1 120 5
0 3 5 -5 10 -13 9 -13 11 0 20 8 5 10 10 5 10 -7 0 -11 82 -10 245 0 135 -2
246 -5 246 -3 1 -639 5 -651 4z"/>
<path d="M705 2335 c-5 -2 -43 -11 -83 -20 -102 -23 -200 -75 -267 -142 -110
-109 -159 -229 -170 -418 -1 -27 -3 -53 -4 -57 0 -5 -42 -8 -91 -8 l-90 0 2
-202 c2 -156 6 -202 16 -201 6 2 12 -2 12 -7 0 -6 5 -10 11 -10 5 0 8 3 6 8
-3 4 8 7 24 7 16 0 29 -4 29 -9 0 -5 7 -3 15 4 12 10 15 10 15 -1 0 -11 2 -11
10 1 9 13 10 13 10 0 0 -13 1 -13 10 0 9 13 14 7 11 -12 0 -5 2 -8 7 -8 9 0 8
-172 -1 -187 -4 -7 -4 -14 1 -17 9 -6 9 -102 -1 -112 -3 -4 -3 -14 1 -23 10
-20 8 -223 -2 -239 -4 -7 -3 -12 2 -12 5 0 9 -7 9 -15 0 -8 -5 -15 -11 -15 -6
0 -5 -4 2 -9 17 -11 17 -21 0 -32 -7 -5 -8 -9 -2 -9 14 0 14 -30 0 -30 -7 0
-7 -3 -1 -8 15 -11 17 -32 4 -48 -6 -8 -8 -14 -3 -14 5 0 9 -63 9 -140 0 -77
4 -140 9 -139 5 0 13 -5 17 -13 7 -10 9 -10 9 0 0 10 5 10 20 2 11 -6 20 -7
20 -2 0 11 40 10 58 -1 6 -5 12 -4 12 1 0 12 43 10 52 -3 5 -6 8 -4 8 5 0 13
1 13 10 0 8 -12 10 -12 10 -1 0 10 3 11 13 2 8 -6 17 -8 21 -4 10 10 66 10 66
0 0 -4 5 -5 12 -1 16 10 98 12 125 2 12 -4 25 -3 28 1 6 10 24 9 42 -2 12 -8
27 6 17 16 -3 3 -5 48 -5 99 1 51 1 122 0 158 0 36 -1 72 0 80 0 8 0 62 0 120
-1 58 -1 112 -1 120 1 8 1 125 2 258 1 205 3 242 14 232 11 -8 15 -8 19 2 3 8
6 5 7 -7 l1 -20 9 20 c5 11 9 14 9 7 1 -8 6 -10 13 -6 19 12 48 12 41 1 -4 -6
-1 -7 8 -1 19 11 89 12 89 1 0 -5 7 -4 15 3 12 10 15 10 15 -1 0 -9 3 -10 8
-4 4 6 28 10 55 10 l47 -1 1 43 c1 24 1 52 1 63 0 11 0 83 -1 160 l-1 140
-182 2 -181 3 -2 31 c-2 43 28 130 44 126 7 -1 10 2 7 6 -8 14 31 45 45 36 7
-4 10 -3 5 4 -8 13 74 32 90 20 6 -4 14 -5 18 -1 4 4 11 1 16 -7 6 -9 10 -10
10 -3 0 9 8 9 33 1 17 -6 36 -15 42 -19 16 -16 33 -10 40 14 3 12 10 31 15 42
4 11 18 50 31 87 12 37 26 65 31 62 4 -3 5 1 3 9 -3 7 5 45 19 85 17 52 21 74
12 80 -13 10 -74 35 -78 32 -2 -1 -15 3 -31 9 -15 6 -40 14 -55 17 -29 7 -290
15 -307 9z"/>
<path d="M785 1860 c-3 -6 1 -7 9 -4 18 7 21 14 7 14 -6 0 -13 -4 -16 -10z"/>
<path d="M895 1860 c3 -5 8 -10 11 -10 2 0 4 5 4 10 0 6 -5 10 -11 10 -5 0 -7
-4 -4 -10z"/>
<path d="M926 1862 c-3 -5 1 -9 9 -9 8 0 12 4 9 9 -3 4 -7 8 -9 8 -2 0 -6 -4
-9 -8z"/>
<path d="M840 1840 c-9 -6 -10 -10 -3 -10 6 0 15 5 18 10 8 12 4 12 -15 0z"/>
<path d="M830 1799 c0 -5 5 -7 10 -4 6 3 10 8 10 11 0 2 -4 4 -10 4 -5 0 -10
-5 -10 -11z"/>
<path d="M730 1759 c0 -5 5 -7 10 -4 6 3 10 8 10 11 0 2 -4 4 -10 4 -5 0 -10
-5 -10 -11z"/>
<path d="M1276 1662 c-3 -5 1 -9 9 -9 8 0 12 4 9 9 -3 4 -7 8 -9 8 -2 0 -6 -4
-9 -8z"/>
<path d="M787 1239 c7 -7 15 -10 18 -7 3 3 -2 9 -12 12 -14 6 -15 5 -6 -5z"/>
<path d="M894 1222 c4 -3 14 -7 22 -8 9 -1 13 0 10 4 -4 3 -14 7 -22 8 -9 1
-13 0 -10 -4z"/>
<path d="M750 1180 c0 -5 5 -10 11 -10 5 0 7 5 4 10 -3 6 -8 10 -11 10 -2 0
-4 -4 -4 -10z"/>
<path d="M754 1142 c4 -3 14 -7 22 -8 9 -1 13 0 10 4 -4 3 -14 7 -22 8 -9 1
-13 0 -10 -4z"/>
<path d="M2113 185 c0 -8 4 -12 9 -9 5 3 6 10 3 15 -9 13 -12 11 -12 -6z"/>
<path d="M290 186 c0 -2 7 -7 16 -10 8 -3 12 -2 9 4 -6 10 -25 14 -25 6z"/>
<path d="M460 186 c0 -2 8 -10 18 -17 15 -13 16 -12 3 4 -13 16 -21 21 -21 13z"/>
<path d="M595 180 c3 -5 8 -10 11 -10 2 0 4 5 4 10 0 6 -5 10 -11 10 -5 0 -7
-4 -4 -10z"/>
<path d="M559 153 c-13 -16 -12 -17 4 -4 16 13 21 21 13 21 -2 0 -10 -8 -17
-17z"/>
<path d="M1490 160 c0 -5 5 -10 11 -10 5 0 7 5 4 10 -3 6 -8 10 -11 10 -2 0
-4 -4 -4 -10z"/>
<path d="M1624 162 c4 -3 14 -7 22 -8 9 -1 13 0 10 4 -4 3 -14 7 -22 8 -9 1
-13 0 -10 -4z"/>
<path d="M1770 159 c0 -5 5 -7 10 -4 6 3 10 8 10 11 0 2 -4 4 -10 4 -5 0 -10
-5 -10 -11z"/>
<path d="M1733 145 c0 -8 4 -12 9 -9 5 3 6 10 3 15 -9 13 -12 11 -12 -6z"/>
<path d="M2095 140 c-3 -5 -1 -10 4 -10 6 0 11 5 11 10 0 6 -2 10 -4 10 -3 0
-8 -4 -11 -10z"/>
<path d="M2250 139 c0 -5 5 -7 10 -4 6 3 10 8 10 11 0 2 -4 4 -10 4 -5 0 -10
-5 -10 -11z"/>
<path d="M2295 140 c3 -5 8 -10 11 -10 2 0 4 5 4 10 0 6 -5 10 -11 10 -5 0 -7
-4 -4 -10z"/>
<path d="M2185 120 c-3 -6 1 -7 9 -4 18 7 21 14 7 14 -6 0 -13 -4 -16 -10z"/>
</g>
</svg>
