<svg version="1.0" xmlns="http://www.w3.org/2000/svg" width="346.667" height="346.667" viewBox="0 0 260 260"><path d="M133.9 7.5c-.1 0-.2 3.6-.3 8-.1 4.4-.6 8.6-1 9.4-.6.8-.5 1.2 0 .8.5-.3.9 4.5.9 11.4 0 7.2-.4 11.9-1 11.9-.7 0-.7.3 0 .8.6.4 1 13.5 1 35.7 0 22.2-.4 35.3-1 35.7-.7.5-.7.8 0 .8.6 0 1 1.6 1.1 3.5 0 2.2-.3 3.2-1 2.8-.8-.5-.8-.2-.1.8.7.9 1 20.3 1 56l-.1 54.6 4.1-.2c2.2-.1 4.6.3 5.4.9.8.6 1.2.6.9.1-.4-.6 2.3-1 7.3-1 4.3 0 7.9.4 7.9.9s.8.2 1.7-.5c1.5-1.2 1.6-1.2.9.5-.7 1.9-.6 1.9 1.3.2 1.5-1.3 2-1.4 2.5-.4.5 1.1.7 1.1 1.2 0 .5-1 1-.9 2.5.4 1.9 1.7 2 1.7 1.3 0-.6-1.6-.4-1.7 1.4-.7 1.7.9 2.2.9 2.2-.1 0-.9.3-.9 1.1.2.8 1.2 1.2 1.2 1.6.2.4-1 .8-1 2.1 0 .9.7 1.3.8.9.2-.7-1.3 3.1-1.3 5.2 0 .9.6 1.2.5.8 0-.3-.6 1.7-1 4.9-.9 4.3 0 5.3.3 4.9 1.4-.5 1.3-.3 1.3 1.2 0 2.1-1.8 6.8-1.9 6.8-.2 0 .6.4 1.5.9 2 .5.4.7.3.3-.2-.3-.6-.2-1.7.4-2.5.7-1.2.9-1.2.9-.1 0 1.1.3 1.1 1.5.1 1.1-.9 1.5-.9 1.5-.1 0 .7.5.9 1.3.4 2.1-1.3 8.1-.9 9.5.7.9 1.1 1.2 1.2 1 .1-.2-.9.9-1.4 3.5-1.5 3-.2 3.7.1 3.2 1.3-.3 1 0 .9 1-.3 1.1-1.4 1.5-1.6 1.5-.5 0 .8.3 1 .8.4 1-1.4 5.2-1.5 5.2-.1 0 .6.4.5.9-.3.6-.9 1.1-1 1.5-.2.5.8 1.3.8 2.7.1 1.4-.8 1.9-.7 1.9.1 0 .8.5.7 1.7-.2 1.5-1.2 1.6-1.2.9.5-.7 1.9-.6 1.9 1.4.1 1.4-1.3 2-1.4 2-.5 0 1.1.3 1.1 1.2.2.9-.9 1.6-.8 3 .5 1.8 1.6 1.8 1.6 1.2-.3-.7-1.6-.6-1.7.8-.6 1.1.9 1.8 1 2.3.2.3-.6 1.1-.8 1.6-.5.5.4.9-9.7.9-25.8v-26.4l-26.2-.1c-14.5 0-28.1-.1-30.4-.1-4-.1-4.1-.2-4.1-3.6 0-2 .4-3.2 1-2.8.6.4.7.1.1-.8-1.2-1.9-1.4-9.1-.3-10.6.6-.7.6-1.3.1-1.7-1.2-.7-1-10.6.2-12.5.6-.9.5-1.2-.1-.8-.6.4-1-2-1-6.3.1-4.3.5-7 1.1-7 .6 0 .4-.5-.4-1-1.3-.9-1.3-1.1 0-2 .8-.5 1-1 .4-1-1.4 0-1.4-12 .1-12 .5 0 .3-.5-.5-1-1.3-.9-1.3-1.1 0-2 .8-.5 1-1 .4-1-1.3 0-1.3-21.8 0-23.9.6-.9.5-1.2-.2-.7-1.4.8-1.2-3.4.2-5.3.8-1.1.8-1.3 0-.8-.7.4-1.1-1.6-1.1-6.3.1-4.3.5-7 1.1-7 .6 0 .4-.5-.4-1-1.3-.9-1.3-1.1 0-2 .8-.5 1-1 .4-1-1.4 0-1.4-12 .1-12 .5 0 .3-.5-.5-1-1.3-.9-1.3-1.1 0-2 .8-.5 1-1 .5-1-.7 0-1.1-8.2-1-24.5 0-13.5-.2-24.6-.5-24.6-.3-.1-63.9-.5-65.1-.4zm-63.4 19c-.5.2-4.3 1.1-8.3 2-10.2 2.3-20 7.5-26.7 14.2-11 10.9-15.9 22.9-17 41.8-.1 2.7-.3 5.3-.4 5.7 0 .5-4.2.8-9.1.8H0l.2 20.2c.2 15.6.6 20.2 1.6 20.1.6-.2 1.2.2 1.2.7 0 .6.5 1 1.1 1 .5 0 .8-.3.6-.8-.3-.4.8-.7 2.4-.7 1.6 0 2.9.4 2.9.9s.7.3 1.5-.4c1.2-1 1.5-1 1.5.1s.2 1.1 1-.1c.9-1.3 1-1.3 1 0s.1 1.3 1 0 1.4-.7 1.1 1.2c0 .5.2.8.7.8.9 0 .8 17.2-.1 18.7-.4.7-.4 1.4.1 1.7.9.6.9 10.2-.1 11.2-.3.4-.3 1.4.1 2.3 1 2 .8 22.3-.2 23.9-.4.7-.3 1.2.2 1.2s.9.7.9 1.5-.5 1.5-1.1 1.5c-.6 0-.5.4.2.9 1.7 1.1 1.7 2.1 0 3.2-.7.5-.8.9-.2.9 1.4 0 1.4 3 0 3-.7 0-.7.3-.1.8 1.5 1.1 1.7 3.2.4 4.8-.6.8-.8 1.4-.3 1.4s.9 6.3.9 14 .4 14 .9 13.9c.5 0 1.3.5 1.7 1.3.7 1 .9 1 .9 0s.5-1 2-.2c1.1.6 2 .7 2 .2 0-1.1 4-1 5.8.1.6.5 1.2.4 1.2-.1 0-1.2 4.3-1 5.2.3.5.6.8.4.8-.5 0-1.3.1-1.3 1 0 .8 1.2 1 1.2 1 .1 0-1 .3-1.1 1.3-.2.8.6 1.7.8 2.1.4 1-1 6.6-1 6.6 0 0 .4.5.5 1.2.1 1.6-1 9.8-1.2 12.5-.2 1.2.4 2.5.3 2.8-.1.6-1 2.4-.9 4.2.2 1.2.8 2.7-.6 1.7-1.6-.3-.3-.5-4.8-.5-9.9.1-5.1.1-12.2 0-15.8 0-3.6-.1-7.2 0-8v-12c-.1-5.8-.1-11.2-.1-12 .1-.8.1-12.5.2-25.8.1-20.5.3-24.2 1.4-23.2 1.1.8 1.5.8 1.9-.2.3-.8.6-.5.7.7l.1 2 .9-2c.5-1.1.9-1.4.9-.7.1.8.6 1 1.3.6 1.9-1.2 4.8-1.2 4.1-.1-.4.6-.1.7.8.1 1.9-1.1 8.9-1.2 8.9-.1 0 .5.7.4 1.5-.3 1.2-1 1.5-1 1.5.1 0 .9.3 1 .8.4.4-.6 2.8-1 5.5-1l4.7.1.1-4.3c.1-2.4.1-5.2.1-6.3 0-1.1 0-8.3-.1-16l-.1-14-18.2-.2-18.1-.3-.2-3.1c-.2-4.3 2.8-13 4.4-12.6.7.1 1-.2.7-.6-.8-1.4 3.1-4.5 4.5-3.6.7.4 1 .3.5-.4-.8-1.3 7.4-3.2 9-2 .6.4 1.4.5 1.8.1.4-.4 1.1-.1 1.6.7.6.9 1 1 1 .3 0-.9.8-.9 3.3-.1 1.7.6 3.6 1.5 4.2 1.9 1.6 1.6 3.3 1 4-1.4.3-1.2 1-3.1 1.5-4.2.4-1.1 1.8-5 3.1-8.7 1.2-3.7 2.6-6.5 3.1-6.2.4.3.5-.1.3-.9-.3-.7.5-4.5 1.9-8.5 1.7-5.2 2.1-7.4 1.2-8-1.3-1-7.4-3.5-7.8-3.2-.2.1-1.5-.3-3.1-.9-1.5-.6-4-1.4-5.5-1.7-2.9-.7-29-1.5-30.7-.9z"/><path d="M78.5 74c-.3.6.1.7.9.4 1.8-.7 2.1-1.4.7-1.4-.6 0-1.3.4-1.6 1zm11 0c.3.5.8 1 1.1 1 .2 0 .4-.5.4-1 0-.6-.5-1-1.1-1-.5 0-.7.4-.4 1zm3.1-.2c-.3.5.1.9.9.9s1.2-.4.9-.9c-.3-.4-.7-.8-.9-.8-.2 0-.6.4-.9.8zM84 76c-.9.6-1 1-.3 1 .6 0 1.5-.5 1.8-1 .8-1.2.4-1.2-1.5 0zm-1 4.1c0 .5.5.7 1 .4.6-.3 1-.8 1-1.1 0-.2-.4-.4-1-.4-.5 0-1 .5-1 1.1zm-10 4c0 .5.5.7 1 .4.6-.3 1-.8 1-1.1 0-.2-.4-.4-1-.4-.5 0-1 .5-1 1.1zm54.6 9.7c-.3.5.1.9.9.9s1.2-.4.9-.9c-.3-.4-.7-.8-.9-.8-.2 0-.6.4-.9.8zm-48.9 42.3c.7.7 1.5 1 1.8.7.3-.3-.2-.9-1.2-1.2-1.4-.6-1.5-.5-.6.5zm10.7 1.7c.4.3 1.4.7 2.2.8.9.1 1.3 0 1-.4-.4-.3-1.4-.7-2.2-.8-.9-.1-1.3 0-1 .4zM75 142c0 .5.5 1 1.1 1 .5 0 .7-.5.4-1-.3-.6-.8-1-1.1-1-.2 0-.4.4-.4 1zm.4 3.8c.4.3 1.4.7 2.2.8.9.1 1.3 0 1-.4-.4-.3-1.4-.7-2.2-.8-.9-.1-1.3 0-1 .4zm135.9 95.7c0 .8.4 1.2.9.9.5-.3.6-1 .3-1.5-.9-1.3-1.2-1.1-1.2.6zM29 241.4c0 .2.7.7 1.6 1 .8.3 1.2.2.9-.4-.6-1-2.5-1.4-2.5-.6zm17 0c0 .2.8 1 1.8 1.7 1.5 1.3 1.6 1.2.3-.4s-2.1-2.1-2.1-1.3zm13.5.6c.3.5.8 1 1.1 1 .2 0 .4-.5.4-1 0-.6-.5-1-1.1-1-.5 0-.7.4-.4 1zm-3.6 2.7c-1.3 1.6-1.2 1.7.4.4 1.6-1.3 2.1-2.1 1.3-2.1-.2 0-1 .8-1.7 1.7zm93.1-.7c0 .5.5 1 1.1 1 .5 0 .7-.5.4-1-.3-.6-.8-1-1.1-1-.2 0-.4.4-.4 1zm13.4-.2c.4.3 1.4.7 2.2.8.9.1 1.3 0 1-.4-.4-.3-1.4-.7-2.2-.8-.9-.1-1.3 0-1 .4zm14.6.3c0 .5.5.7 1 .4.6-.3 1-.8 1-1.1 0-.2-.4-.4-1-.4-.5 0-1 .5-1 1.1zm-3.7 1.4c0 .8.4 1.2.9.9.5-.3.6-1 .3-1.5-.9-1.3-1.2-1.1-1.2.6zm36.2.5c-.3.5-.1 1 .4 1 .6 0 1.1-.5 1.1-1 0-.6-.2-1-.4-1-.3 0-.8.4-1.1 1zm15.5.1c0 .5.5.7 1 .4.6-.3 1-.8 1-1.1 0-.2-.4-.4-1-.4-.5 0-1 .5-1 1.1zm4.5-.1c.3.5.8 1 1.1 1 .2 0 .4-.5.4-1 0-.6-.5-1-1.1-1-.5 0-.7.4-.4 1zm-11 2c-.3.6.1.7.9.4 1.8-.7 2.1-1.4.7-1.4-.6 0-1.3.4-1.6 1z"/></svg>